<svg version="1.1" id="Layer_1" viewBox="0 0 16 16">
<style type="text/css">
	.st0{fill:#444444;}
</style>
<path class="st0" d="M11.8,5.9c0.1-0.4,0.4-1.4,0.5-1.7h-2l-0.2,0.6C9.7,4.1,9.2,3.8,8.3,3.8C6,3.8,4.2,6.2,4.2,9
	c0,1.9,1,3.1,2.7,3.1c0.9,0,1.6-0.3,2.2-1c0,0.3,0.1,0.4,0.1,0.5c0.3,0.4,0.8,0.6,1.4,0.6c1.1,0,2.2-0.5,3.1-1.4c1-1,1.6-2.4,1.6-4
	c0-3.5-2.8-6-6.6-6c-2.6,0-4.6,0.7-6.1,2.3c-1.3,1.3-2,3.1-2,5.2c0,1.9,0.7,3.7,1.9,4.9c1.3,1.3,3.1,2,5.5,2c1.2,0,2.4-0.2,3.5-0.5
	c0.8-0.2,1.2-0.4,2.1-1l-1-1.5c-0.8,0.5-1.2,0.7-1.9,0.9c-0.8,0.2-1.7,0.4-2.5,0.4c-3.3,0-5.6-2.1-5.6-5.3c0-3.3,2.5-5.6,6-5.6
	c1.2,0,2.2,0.3,3,0.7c1.2,0.7,1.9,2.1,1.9,3.6c0,1.3-0.5,2.5-1.3,3.1c-0.3,0.3-0.7,0.4-1,0.4c-0.3,0-0.4-0.2-0.4-0.4
	c0-0.2,0-0.3,0.1-0.5L11.8,5.9z M8.8,9.1c-0.4,0.8-1,1.3-1.6,1.3c-0.6,0-1-0.5-1-1.3c0-0.8,0.3-1.7,0.7-2.5c0.4-0.8,1-1.2,1.6-1.2
	c0.6,0,1,0.5,1,1.1C9.5,7.3,9.2,8.3,8.8,9.1z"/>
</svg>
